<svg width="32" height="32" viewBox="0 0 32 32" fill="none" xmlns="http://www.w3.org/2000/svg">
<rect width="32" height="32" rx="16" fill="#1A1A1A"/>
<path d="M11.1876 23V9.90909H16.4291C17.3921 9.90909 18.1954 10.0518 18.8389 10.3374C19.4823 10.6229 19.966 11.0192 20.2899 11.5263C20.6137 12.0291 20.7757 12.6087 20.7757 13.2649C20.7757 13.7763 20.6734 14.2259 20.4688 14.6136C20.2643 14.9972 19.983 15.3125 19.6251 15.5597C19.2714 15.8026 18.8666 15.9751 18.4106 16.0774V16.2053C18.9092 16.2266 19.3758 16.3672 19.8105 16.6271C20.2494 16.8871 20.6052 17.2514 20.8779 17.7202C21.1507 18.1847 21.287 18.7386 21.287 19.3821C21.287 20.0767 21.1144 20.6967 20.7693 21.2422C20.4284 21.7834 19.9234 22.2116 19.2543 22.527C18.5853 22.8423 17.7607 23 16.7806 23H11.1876ZM13.9553 20.7372H16.2117C16.983 20.7372 17.5455 20.5902 17.8992 20.2962C18.2529 19.9979 18.4298 19.6016 18.4298 19.1072C18.4298 18.745 18.3424 18.4254 18.1677 18.1484C17.993 17.8714 17.7437 17.6541 17.4198 17.4964C17.1002 17.3388 16.7188 17.2599 16.2757 17.2599H13.9553V20.7372ZM13.9553 15.3871H16.0072C16.3865 15.3871 16.7231 15.321 17.0171 15.1889C17.3154 15.0526 17.5498 14.8608 17.7203 14.6136C17.895 14.3665 17.9823 14.0703 17.9823 13.7251C17.9823 13.2521 17.814 12.8707 17.4774 12.581C17.145 12.2912 16.672 12.1463 16.0583 12.1463H13.9553V15.3871Z" fill="#F8FBFC"/>
</svg>
