<svg width="191" height="32" viewBox="0 0 191 32" fill="none" xmlns="http://www.w3.org/2000/svg">
<rect width="32" height="32" rx="16" fill="#1A1A1A"/>
<path d="M11.1876 23V9.90909H16.4291C17.3921 9.90909 18.1954 10.0518 18.8389 10.3374C19.4823 10.6229 19.966 11.0192 20.2899 11.5263C20.6137 12.0291 20.7757 12.6087 20.7757 13.2649C20.7757 13.7763 20.6734 14.2259 20.4688 14.6136C20.2643 14.9972 19.983 15.3125 19.6251 15.5597C19.2714 15.8026 18.8666 15.9751 18.4106 16.0774V16.2053C18.9092 16.2266 19.3758 16.3672 19.8105 16.6271C20.2494 16.8871 20.6052 17.2514 20.8779 17.7202C21.1507 18.1847 21.287 18.7386 21.287 19.3821C21.287 20.0767 21.1144 20.6967 20.7693 21.2422C20.4284 21.7834 19.9234 22.2116 19.2543 22.527C18.5853 22.8423 17.7607 23 16.7806 23H11.1876ZM13.9553 20.7372H16.2117C16.983 20.7372 17.5455 20.5902 17.8992 20.2962C18.2529 19.9979 18.4298 19.6016 18.4298 19.1072C18.4298 18.745 18.3424 18.4254 18.1677 18.1484C17.993 17.8714 17.7437 17.6541 17.4198 17.4964C17.1002 17.3388 16.7188 17.2599 16.2757 17.2599H13.9553V20.7372ZM13.9553 15.3871H16.0072C16.3865 15.3871 16.7231 15.321 17.0171 15.1889C17.3154 15.0526 17.5498 14.8608 17.7203 14.6136C17.895 14.3665 17.9823 14.0703 17.9823 13.7251C17.9823 13.2521 17.814 12.8707 17.4774 12.581C17.145 12.2912 16.672 12.1463 16.0583 12.1463H13.9553V15.3871Z" fill="#F8FBFC"/>
<path d="M40 24.7274V7.27282H47.5682C48.8977 7.27282 50.0142 7.45179 50.9176 7.80975C51.8267 8.1677 52.5114 8.67338 52.9716 9.32679C53.4375 9.9802 53.6705 10.7501 53.6705 11.6365C53.6705 12.2785 53.5284 12.8637 53.2443 13.3921C52.9659 13.9205 52.5739 14.3637 52.0682 14.7217C51.5625 15.074 50.9716 15.3183 50.2955 15.4546V15.6251C51.0455 15.6535 51.7273 15.8438 52.3409 16.1961C52.9545 16.5427 53.4432 17.0228 53.8068 17.6365C54.1705 18.2444 54.3523 18.9603 54.3523 19.7842C54.3523 20.7387 54.1023 21.5882 53.6023 22.3325C53.108 23.0768 52.4034 23.662 51.4886 24.0882C50.5739 24.5143 49.483 24.7274 48.2159 24.7274H40ZM44.7386 20.9433H46.9545C47.75 20.9433 48.3466 20.7955 48.7443 20.5001C49.142 20.199 49.3409 19.7558 49.3409 19.1705C49.3409 18.7615 49.2472 18.4149 49.0597 18.1308C48.8722 17.8467 48.6051 17.6308 48.2585 17.483C47.9176 17.3353 47.5057 17.2615 47.0227 17.2615H44.7386V20.9433ZM44.7386 14.3296H46.6818C47.0966 14.3296 47.4631 14.2643 47.7812 14.1336C48.0994 14.0029 48.3466 13.8154 48.5227 13.5711C48.7045 13.3211 48.7955 13.0171 48.7955 12.6592C48.7955 12.1194 48.6023 11.7075 48.2159 11.4234C47.8295 11.1336 47.3409 10.9887 46.75 10.9887H44.7386V14.3296Z" fill="#1A1A1A"/>
<path d="M72.9403 16.0001C72.9403 17.9433 72.5625 19.5825 71.8068 20.9177C71.0511 22.2472 70.0312 23.2558 68.7472 23.9433C67.4631 24.6251 66.0312 24.966 64.4517 24.966C62.8608 24.966 61.4233 24.6222 60.1392 23.9347C58.8608 23.2416 57.8438 22.2302 57.0881 20.9007C56.3381 19.5654 55.9631 17.9319 55.9631 16.0001C55.9631 14.0569 56.3381 12.4205 57.0881 11.091C57.8438 9.75577 58.8608 8.74725 60.1392 8.06543C61.4233 7.37793 62.8608 7.03418 64.4517 7.03418C66.0312 7.03418 67.4631 7.37793 68.7472 8.06543C70.0312 8.74725 71.0511 9.75577 71.8068 11.091C72.5625 12.4205 72.9403 14.0569 72.9403 16.0001ZM68.0653 16.0001C68.0653 14.9546 67.9261 14.074 67.6477 13.358C67.375 12.6365 66.9688 12.091 66.429 11.7217C65.8949 11.3467 65.2358 11.1592 64.4517 11.1592C63.6676 11.1592 63.0057 11.3467 62.4659 11.7217C61.9318 12.091 61.5256 12.6365 61.2472 13.358C60.9744 14.074 60.8381 14.9546 60.8381 16.0001C60.8381 17.0455 60.9744 17.9291 61.2472 18.6507C61.5256 19.3666 61.9318 19.912 62.4659 20.287C63.0057 20.6563 63.6676 20.841 64.4517 20.841C65.2358 20.841 65.8949 20.6563 66.429 20.287C66.9688 19.912 67.375 19.3666 67.6477 18.6507C67.9261 17.9291 68.0653 17.0455 68.0653 16.0001Z" fill="#1A1A1A"/>
<path d="M92.0419 16.0001C92.0419 17.9433 91.6641 19.5825 90.9084 20.9177C90.1527 22.2472 89.1328 23.2558 87.8487 23.9433C86.5646 24.6251 85.1328 24.966 83.5533 24.966C81.9624 24.966 80.5249 24.6222 79.2408 23.9347C77.9624 23.2416 76.9453 22.2302 76.1896 20.9007C75.4396 19.5654 75.0646 17.9319 75.0646 16.0001C75.0646 14.0569 75.4396 12.4205 76.1896 11.091C76.9453 9.75577 77.9624 8.74725 79.2408 8.06543C80.5249 7.37793 81.9624 7.03418 83.5533 7.03418C85.1328 7.03418 86.5646 7.37793 87.8487 8.06543C89.1328 8.74725 90.1527 9.75577 90.9084 11.091C91.6641 12.4205 92.0419 14.0569 92.0419 16.0001ZM87.1669 16.0001C87.1669 14.9546 87.0277 14.074 86.7493 13.358C86.4766 12.6365 86.0703 12.091 85.5305 11.7217C84.9964 11.3467 84.3374 11.1592 83.5533 11.1592C82.7692 11.1592 82.1072 11.3467 81.5675 11.7217C81.0334 12.091 80.6271 12.6365 80.3487 13.358C80.076 14.074 79.9396 14.9546 79.9396 16.0001C79.9396 17.0455 80.076 17.9291 80.3487 18.6507C80.6271 19.3666 81.0334 19.912 81.5675 20.287C82.1072 20.6563 82.7692 20.841 83.5533 20.841C84.3374 20.841 84.9964 20.6563 85.5305 20.287C86.0703 19.912 86.4766 19.3666 86.7493 18.6507C87.0277 17.9291 87.1669 17.0455 87.1669 16.0001Z" fill="#1A1A1A"/>
<path d="M94.2344 24.7274V7.27282H98.973V14.3296H99.2116L104.462 7.27282H109.984L104.087 15.0455L110.121 24.7274H104.462L100.541 18.1819L98.973 20.2274V24.7274H94.2344Z" fill="#1A1A1A"/>
<path d="M120.565 12.7274C120.52 12.1592 120.307 11.716 119.926 11.3978C119.551 11.0796 118.98 10.9205 118.213 10.9205C117.724 10.9205 117.324 10.9802 117.011 11.0995C116.705 11.2132 116.477 11.3694 116.33 11.5683C116.182 11.7671 116.105 11.9944 116.099 12.2501C116.088 12.4603 116.125 12.6507 116.21 12.8211C116.301 12.9859 116.443 13.1365 116.636 13.2728C116.83 13.4035 117.077 13.5228 117.378 13.6308C117.679 13.7387 118.037 13.8353 118.452 13.9205L119.884 14.2274C120.849 14.4319 121.676 14.7018 122.364 15.037C123.051 15.3722 123.614 15.7671 124.051 16.2217C124.489 16.6705 124.81 17.1762 125.014 17.7387C125.224 18.3012 125.332 18.9149 125.338 19.5796C125.332 20.7274 125.045 21.699 124.477 22.4944C123.909 23.2899 123.097 23.895 122.04 24.3097C120.989 24.7245 119.724 24.9319 118.247 24.9319C116.73 24.9319 115.406 24.7075 114.276 24.2586C113.151 23.8097 112.276 23.1194 111.651 22.1876C111.031 21.2501 110.719 20.0512 110.713 18.591H115.213C115.241 19.1251 115.375 19.574 115.614 19.9376C115.852 20.3012 116.188 20.5768 116.619 20.7643C117.057 20.9518 117.577 21.0455 118.179 21.0455C118.685 21.0455 119.108 20.983 119.449 20.858C119.79 20.733 120.048 20.5597 120.224 20.3382C120.401 20.1166 120.491 19.8637 120.497 19.5796C120.491 19.3126 120.403 19.0796 120.233 18.8808C120.068 18.6762 119.795 18.4944 119.415 18.3353C119.034 18.1705 118.52 18.0171 117.872 17.8751L116.134 17.5001C114.588 17.1649 113.369 16.6052 112.477 15.8211C111.591 15.0313 111.151 13.9546 111.156 12.591C111.151 11.483 111.446 10.5143 112.043 9.68475C112.645 8.84952 113.477 8.19895 114.54 7.73304C115.608 7.26713 116.832 7.03418 118.213 7.03418C119.622 7.03418 120.841 7.26998 121.869 7.74157C122.898 8.21316 123.69 8.87793 124.247 9.73589C124.81 10.5882 125.094 11.5853 125.099 12.7274H120.565Z" fill="#1A1A1A"/>
<path d="M126.663 11.091V7.27282H141.834V11.091H136.584V24.7274H131.913V11.091H126.663Z" fill="#1A1A1A"/>
<path d="M159.706 16.0001C159.706 17.9433 159.328 19.5825 158.572 20.9177C157.817 22.2472 156.797 23.2558 155.513 23.9433C154.229 24.6251 152.797 24.966 151.217 24.966C149.626 24.966 148.189 24.6222 146.905 23.9347C145.626 23.2416 144.609 22.2302 143.854 20.9007C143.104 19.5654 142.729 17.9319 142.729 16.0001C142.729 14.0569 143.104 12.4205 143.854 11.091C144.609 9.75577 145.626 8.74725 146.905 8.06543C148.189 7.37793 149.626 7.03418 151.217 7.03418C152.797 7.03418 154.229 7.37793 155.513 8.06543C156.797 8.74725 157.817 9.75577 158.572 11.091C159.328 12.4205 159.706 14.0569 159.706 16.0001ZM154.831 16.0001C154.831 14.9546 154.692 14.074 154.413 13.358C154.141 12.6365 153.734 12.091 153.195 11.7217C152.661 11.3467 152.001 11.1592 151.217 11.1592C150.433 11.1592 149.771 11.3467 149.232 11.7217C148.697 12.091 148.291 12.6365 148.013 13.358C147.74 14.074 147.604 14.9546 147.604 16.0001C147.604 17.0455 147.74 17.9291 148.013 18.6507C148.291 19.3666 148.697 19.912 149.232 20.287C149.771 20.6563 150.433 20.841 151.217 20.841C152.001 20.841 152.661 20.6563 153.195 20.287C153.734 19.912 154.141 19.3666 154.413 18.6507C154.692 17.9291 154.831 17.0455 154.831 16.0001Z" fill="#1A1A1A"/>
<path d="M161.898 24.7274V7.27282H169.433C170.728 7.27282 171.862 7.50861 172.833 7.9802C173.805 8.45179 174.56 9.13077 175.1 10.0171C175.64 10.9035 175.91 11.966 175.91 13.2046C175.91 14.4546 175.631 15.5086 175.075 16.3666C174.523 17.2245 173.748 17.8722 172.748 18.3097C171.754 18.7472 170.592 18.966 169.262 18.966H164.762V15.2842H168.308C168.864 15.2842 169.339 15.216 169.731 15.0796C170.129 14.9376 170.433 14.7132 170.643 14.4063C170.859 14.0995 170.967 13.699 170.967 13.2046C170.967 12.7046 170.859 12.2984 170.643 11.9859C170.433 11.6677 170.129 11.4347 169.731 11.287C169.339 11.1336 168.864 11.0569 168.308 11.0569H166.637V24.7274H161.898ZM172.126 16.716L176.489 24.7274H171.342L167.08 16.716H172.126Z" fill="#1A1A1A"/>
<path d="M177.93 24.7274V7.27282H190.509V11.091H182.668V14.091H189.862V17.9092H182.668V20.9092H190.475V24.7274H177.93Z" fill="#1A1A1A"/>
</svg>
