<svg width="30" height="22" viewBox="0 0 30 22" fill="none" xmlns="http://www.w3.org/2000/svg">
<path d="M27.444 0.333984H2.55512C2.08363 0.333984 1.63144 0.521285 1.29804 0.854683C0.964645 1.18808 0.777344 1.64027 0.777344 2.11176V19.8895C0.777344 20.361 0.964645 20.8132 1.29804 21.1466C1.63144 21.48 2.08363 21.6673 2.55512 21.6673H27.444C27.9155 21.6673 28.3677 21.48 28.7011 21.1466C29.0345 20.8132 29.2218 20.361 29.2218 19.8895V2.11176C29.2218 1.64027 29.0345 1.18808 28.7011 0.854683C28.3677 0.521285 27.9155 0.333984 27.444 0.333984V0.333984ZM26.0751 19.8895H4.03068L10.2529 13.454L8.9729 12.2184L2.55512 18.8584V3.46287L13.604 14.4584C13.9371 14.7895 14.3877 14.9754 14.8573 14.9754C15.327 14.9754 15.7776 14.7895 16.1107 14.4584L27.444 3.18732V18.7429L20.9018 12.2007L19.6485 13.454L26.0751 19.8895ZM3.71957 2.11176H26.004L14.8573 13.1962L3.71957 2.11176Z" fill="#5BA4BB"/>
</svg>
