<svg width="40" height="40" viewBox="0 0 40 40" fill="none" xmlns="http://www.w3.org/2000/svg">
<path fill-rule="evenodd" clip-rule="evenodd" d="M11.5008 21.7871V21.5681C11.533 20.9202 11.7406 20.2925 12.1024 19.7496C12.7045 19.0975 13.1167 18.2983 13.2957 17.436C13.2957 16.7695 13.2957 16.0935 13.3539 15.427C13.6547 12.2184 16.8273 10 19.9611 10H20.0387C23.1725 10 26.345 12.2184 26.6555 15.427C26.7137 16.0935 26.6555 16.7695 26.704 17.436C26.8854 18.3003 27.2972 19.1019 27.8974 19.7591C28.2618 20.2972 28.4698 20.9227 28.4989 21.5681V21.7776C28.5206 22.648 28.2208 23.4968 27.6548 24.1674C26.907 24.9515 25.8921 25.4393 24.8024 25.5384C21.607 25.8812 18.383 25.8812 15.1876 25.5384C14.0991 25.435 13.0858 24.9479 12.3352 24.1674C11.778 23.4963 11.4822 22.6526 11.5008 21.7871Z" stroke="#1A1A1A" stroke-width="1.5" stroke-linecap="round" stroke-linejoin="round"/>
<path d="M17.5547 28.8516C18.054 29.4782 18.7871 29.8838 19.592 29.9785C20.3968 30.0732 21.2069 29.8493 21.843 29.3562C22.0387 29.2103 22.2147 29.0408 22.3669 28.8516" stroke="#1A1A1A" stroke-width="1.5" stroke-linecap="round" stroke-linejoin="round"/>
</svg>
